<svg version="1.1" id="Layer_1" xmlns="http://www.w3.org/2000/svg" xmlns:xlink="http://www.w3.org/1999/xlink" 
	  width="2500" height="1261" viewBox="0 0 655 128" enable-background="new 0 0 655 128" xml:space="preserve">
<path fill="#FFFFFF" opacity="1.000000" stroke="none" 
	d="
M478.000000,129.000000 
	C318.666687,129.000000 159.833389,129.000000 1.000064,129.000000 
	C1.000043,86.333366 1.000043,43.666740 1.000021,1.000081 
	C219.333252,1.000054 437.666504,1.000054 655.999817,1.000027 
	C655.999878,43.666584 655.999878,86.333168 655.999939,128.999878 
	C596.833313,129.000000 537.666687,129.000000 478.000000,129.000000 
M319.498138,24.000000 
	C302.518585,24.000040 285.539001,23.973932 268.559540,24.015409 
	C263.184174,24.028540 260.046112,26.881607 260.029938,31.993547 
	C259.960510,53.966858 259.964905,75.940613 260.026825,97.913963 
	C260.041138,102.989212 262.217316,104.992561 267.255951,104.995125 
	C289.395935,105.006393 311.535950,105.001160 333.675934,104.999275 
	C340.044556,104.998734 341.936646,103.355003 341.964172,96.955833 
	C342.057220,75.315636 342.035980,53.674686 341.972351,32.034275 
	C341.957764,27.075710 338.934174,24.132280 333.980164,24.021502 
	C329.487823,23.921041 324.991486,24.000093 319.498138,24.000000 
M248.998444,91.278656 
	C248.998444,72.894058 248.998444,54.509460 248.998444,36.234062 
	C244.635086,36.234062 241.026566,36.234062 237.000000,36.234062 
	C237.000000,39.575302 237.000000,42.697479 237.000000,45.819653 
	C237.000000,49.112297 237.000000,52.404942 237.000000,55.804661 
	C220.813095,51.026630 211.856415,54.065018 208.007645,65.399849 
	C205.096893,73.972153 207.431122,86.873817 213.125397,90.488167 
	C221.175797,95.598030 229.575211,96.385544 237.775040,90.031944 
	C238.000854,91.744911 238.142181,92.816948 238.298141,93.999992 
	C240.522095,93.999992 242.383682,94.229393 244.157516,93.933205 
	C245.815674,93.656334 247.380737,92.821861 248.998444,91.278656 
M155.888916,54.000015 
	C154.009995,54.743416 151.679245,55.020496 150.338623,56.319466 
	C146.624557,59.918171 143.323135,63.942757 138.951111,68.809151 
	C138.951111,57.063473 138.951111,46.706993 138.951111,36.298813 
	C134.407227,36.298813 130.352036,36.298813 126.304626,36.298813 
	C126.304626,55.638397 126.304626,74.677597 126.304626,93.662079 
	C130.671875,93.662079 134.727951,93.662079 139.079529,93.662079 
	C139.079529,88.087921 139.079529,82.844444 139.079529,77.600967 
	C143.212677,81.926628 146.449585,86.669670 149.769135,91.354134 
	C150.467102,92.339096 151.432404,93.813507 152.336548,93.860130 
	C157.172058,94.109512 162.027237,93.977760 167.923859,93.977760 
	C162.163696,86.064308 157.167984,79.201050 152.360016,72.595734 
	C157.550735,66.499123 162.466125,60.725895 168.192642,54.000000 
	C163.363861,54.000000 160.075653,54.000000 155.888916,54.000015 
M194.329758,54.816650 
	C192.949234,54.425114 191.580154,53.986198 190.186325,53.649849 
	C182.041016,51.684319 174.834488,53.964222 169.078049,59.606831 
	C163.302933,65.267731 162.755173,72.746643 164.738052,80.175186 
	C168.711884,95.062500 188.205566,98.911980 199.691696,89.791069 
	C202.148026,87.840553 203.280640,85.998520 199.587296,83.981972 
	C197.507263,82.846283 195.712906,81.187370 193.876160,79.828026 
	C186.374725,86.610146 179.538773,85.712601 177.824509,77.769562 
	C186.482361,77.769562 195.074692,77.769562 203.623718,77.769562 
	C204.804886,66.197289 203.076691,61.668877 194.329758,54.816650 
M121.000000,89.357422 
	C120.999931,81.691788 121.077225,74.025154 120.977272,66.360817 
	C120.883972,59.205948 118.001198,55.052261 110.958359,54.152290 
	C106.137238,53.536221 101.069313,54.851425 96.371666,55.279564 
	C92.376511,52.613583 87.674217,54.629848 83.356155,54.000141 
	C83.356155,67.703560 83.356155,80.765289 83.356155,93.780792 
	C87.658928,93.780792 91.603584,93.780792 96.000015,93.780792 
	C96.000015,87.450974 95.894188,81.327782 96.055466,75.211632 
	C96.114632,72.967926 96.183968,70.292786 97.381317,68.630096 
	C98.621689,66.907646 101.177856,65.427223 103.268280,65.266243 
	C104.702522,65.155792 107.132454,67.197891 107.685883,68.778862 
	C108.687874,71.641312 108.843887,74.870323 108.950188,77.960159 
	C109.131096,83.218987 109.000000,88.488541 109.000000,93.999435 
	C112.276352,93.999435 114.940865,93.802689 117.563210,94.051094 
	C120.587830,94.337593 121.383469,92.972176 121.000000,89.357422 
M41.674706,80.999817 
	C39.017853,81.387344 37.793152,80.575897 37.934078,77.562584 
	C38.174984,72.411331 38.000080,67.240639 38.000023,62.078106 
	C37.999928,53.481300 38.000000,44.884499 38.000000,36.335190 
	C33.006313,36.335190 28.614820,36.335190 24.359240,36.335190 
	C24.359240,55.722782 24.359240,74.773239 24.359240,93.611694 
	C36.445427,93.611694 48.169304,93.611694 59.751583,93.611694 
	C59.751583,89.277435 59.751583,85.333282 59.751583,81.000000 
	C53.888165,81.000000 48.263866,81.000000 41.674706,80.999817 
M632.000000,88.435562 
	C632.000000,78.002052 632.000000,67.568542 632.000000,56.986462 
	C627.027283,56.986462 622.464661,57.850136 618.399658,56.795677 
	C611.280029,54.948868 605.171692,56.325809 600.393311,61.312569 
	C593.844482,68.147018 593.241333,76.674019 597.190552,84.893486 
	C600.063416,90.872879 605.360474,94.643417 612.568970,93.950790 
	C616.996399,93.525375 621.377441,92.617157 625.857971,91.913391 
	C626.927612,95.797958 624.592529,98.787323 621.555481,100.793121 
	C613.948792,105.817024 606.602173,101.714050 599.302307,99.374191 
	C598.082031,103.852226 599.500122,106.710823 604.209534,107.035934 
	C609.746033,107.418159 615.486633,108.399223 620.816406,107.400429 
	C629.133179,105.841858 632.000000,100.354797 632.000000,88.435562 
M466.084442,57.415798 
	C462.638733,56.945114 459.204712,56.349506 455.745239,56.026367 
	C443.737366,54.904762 435.918060,63.512573 436.000031,77.660767 
	C436.040131,84.583031 439.997314,90.614700 446.717560,93.173653 
	C453.284576,95.674225 459.632202,95.361221 465.166931,90.362389 
	C465.614746,89.957939 466.167328,89.669479 466.798920,89.240349 
	C466.972778,90.968361 467.114838,92.380280 467.281464,94.036255 
	C469.315582,93.935234 471.043915,93.849396 472.684875,93.767899 
	C472.684875,81.280861 472.684875,69.220779 472.684875,57.055866 
	C470.548523,57.055866 468.726013,57.055866 466.084442,57.415798 
M399.923218,87.567604 
	C403.146545,93.660828 409.418091,94.638916 414.948914,94.671745 
	C422.057343,94.713921 428.530701,91.750381 431.693726,84.358154 
	C430.006256,83.519875 428.419952,82.731842 426.860352,81.957085 
	C422.645050,87.965691 417.017670,90.350655 411.212494,88.694534 
	C406.168427,87.255547 402.767303,82.888512 402.312775,76.935532 
	C412.442657,76.935532 422.551331,76.935532 432.617279,76.935532 
	C433.405457,68.103523 428.996246,60.265896 421.725769,57.300259 
	C413.580994,53.978020 404.865326,57.113792 400.615051,62.026424 
	C394.538330,69.050117 394.285278,79.512451 399.923218,87.567604 
M503.000000,65.555229 
	C503.000000,74.982285 503.000000,84.409340 503.000000,94.064552 
	C505.382294,93.941307 507.112122,93.851814 509.000000,93.754143 
	C509.000000,85.616859 508.995117,77.972618 509.005188,70.328400 
	C509.006744,69.166885 508.766357,67.880203 509.174072,66.867249 
	C510.451385,63.693771 518.585632,60.621117 522.736511,62.122677 
	C526.449463,63.465786 528.085449,66.609818 528.029846,70.686157 
	C527.925842,78.305054 527.999939,85.926384 527.999939,93.768188 
	C530.136597,93.768188 531.860535,93.768188 533.987610,93.768188 
	C533.987610,84.597549 534.372314,75.623001 533.821289,66.706268 
	C533.555603,62.406387 530.643860,58.977394 526.347961,57.125175 
	C520.132019,54.445133 514.699890,57.019405 509.259125,59.769539 
	C509.343170,59.216991 509.427185,58.664444 509.511200,58.111897 
	C507.499695,57.675720 505.488190,57.239548 503.000000,56.700016 
	C503.000000,59.950172 503.000000,62.264156 503.000000,65.555229 
M65.000000,74.499771 
	C65.000000,80.908211 65.000000,87.316658 65.000000,93.676109 
	C69.658653,93.676109 73.706436,93.676109 77.698311,93.676109 
	C77.698311,80.329132 77.698311,67.308014 77.698311,54.323189 
	C73.342735,54.323189 69.294960,54.323189 65.000000,54.323189 
	C65.000000,60.929699 65.000000,67.214966 65.000000,74.499771 
M564.000000,76.569038 
	C564.355957,73.193375 563.772766,69.297279 565.287598,66.563858 
	C567.567261,62.450390 574.928955,60.856483 578.954346,62.459667 
	C583.955505,64.451439 584.006470,68.786171 584.001953,73.150833 
	C583.994812,80.064491 584.000000,86.978172 584.000000,93.772827 
	C586.365784,93.772827 587.974976,93.772827 589.985901,93.772827 
	C589.985901,84.929146 590.438843,76.270782 589.816101,67.690498 
	C589.442200,62.537548 586.676575,58.583305 580.865112,56.755798 
	C574.302490,54.692051 569.562439,57.837959 564.250366,60.568607 
	C564.082764,59.449715 563.923645,58.387619 563.745911,57.201115 
	C562.257751,57.201115 560.825745,57.201115 559.244263,57.201115 
	C559.244263,69.482735 559.244263,81.567436 559.244263,93.722862 
	C560.883301,93.722862 562.274658,93.722862 564.000000,93.722862 
	C564.000000,88.155190 564.000000,82.851166 564.000000,76.569038 
M389.370178,88.000000 
	C382.954895,88.000000 376.539612,88.000000 369.850525,88.000000 
	C369.850525,70.303452 369.850525,53.357731 369.850525,36.253769 
	C367.825745,36.253769 366.100616,36.253769 364.289307,36.253769 
	C364.289307,55.563789 364.289307,74.621758 364.289307,93.693550 
	C374.652588,93.693550 384.723694,93.693550 394.839142,93.693550 
	C394.839142,91.765488 394.839142,90.144623 394.839142,88.230888 
	C393.244995,88.149155 391.790527,88.074577 389.370178,88.000000 
M481.001221,91.232018 
	C480.787231,95.516975 483.623169,93.663467 486.000214,93.915359 
	C486.000214,87.092049 485.794006,80.646675 486.054626,74.220238 
	C486.351288,66.905182 490.670288,61.357117 497.069885,61.882446 
	C497.299011,61.901253 497.559662,61.535774 498.041229,61.170868 
	C497.928864,59.917339 497.803772,58.521572 497.752655,57.951401 
	C491.965240,57.951401 486.627136,57.951401 481.000061,57.951401 
	C481.000061,68.423759 481.000061,79.352386 481.001221,91.232018 
M545.460510,57.000019 
	C543.360779,57.000019 541.260986,57.000019 538.880066,57.000019 
	C539.064575,59.036968 539.192017,60.444668 539.309570,61.742630 
	C541.080078,61.986992 542.468384,62.178616 544.225220,62.421089 
	C544.225220,73.104477 544.225220,83.477234 544.225220,94.055687 
	C546.386719,93.942307 548.112244,93.851799 549.998840,93.752846 
	C549.998840,82.171364 549.895691,71.074875 550.066345,59.982601 
	C550.113098,56.944664 548.587769,56.805241 545.460510,57.000019 
M69.143242,35.355537 
	C68.313911,35.855839 67.474716,36.340591 66.656982,36.859180 
	C63.390743,38.930546 63.228710,42.371449 64.339920,45.186871 
	C65.129311,47.186913 67.636398,49.080475 69.792114,49.834797 
	C72.964279,50.944790 75.874390,49.599739 77.783791,46.558365 
	C81.250160,41.036999 77.789757,35.974297 69.143242,35.355537 
M551.920288,45.365257 
	C550.153870,43.579964 548.616089,41.331432 546.487122,40.280949 
	C545.815247,39.949429 542.488037,42.717384 542.332520,44.263607 
	C542.177185,45.808258 544.374390,48.871117 545.715210,48.973267 
	C547.556519,49.113552 549.562561,47.092583 551.920288,45.365257 
z"/>
<path fill="#0A66C2" opacity="1.000000" stroke="none" 
	d="
M319.997498,24.000000 
	C324.991486,24.000093 329.487823,23.921041 333.980164,24.021502 
	C338.934174,24.132280 341.957764,27.075710 341.972351,32.034275 
	C342.035980,53.674686 342.057220,75.315636 341.964172,96.955833 
	C341.936646,103.355003 340.044556,104.998734 333.675934,104.999275 
	C311.535950,105.001160 289.395935,105.006393 267.255951,104.995125 
	C262.217316,104.992561 260.041138,102.989212 260.026825,97.913963 
	C259.964905,75.940613 259.960510,53.966858 260.029938,31.993547 
	C260.046112,26.881607 263.184174,24.028540 268.559540,24.015409 
	C285.539001,23.973932 302.518585,24.000040 319.997498,24.000000 
M304.902924,66.642921 
	C307.297791,62.935860 311.379150,63.136799 314.209198,64.471603 
	C316.179688,65.400986 317.646759,69.164871 317.832092,71.769737 
	C318.324005,78.683304 317.999023,85.654999 317.999023,92.718231 
	C321.885254,92.718231 325.277191,92.718231 329.453674,92.718231 
	C328.956177,83.198753 328.617950,73.979187 327.933563,64.785393 
	C327.588989,60.156776 324.732452,56.789623 320.475739,55.303951 
	C315.927368,53.716480 311.274048,53.972725 307.268005,57.249508 
	C306.087891,58.214836 304.963745,59.248592 303.409943,60.603226 
	C303.056519,58.157021 302.834534,56.620472 302.635651,55.243820 
	C299.271942,55.243820 296.332428,55.243820 293.278503,55.243820 
	C293.278503,67.884209 293.278503,80.279190 293.278503,92.681427 
	C296.625122,92.681427 299.685486,92.681427 302.378601,92.681427 
	C303.035126,83.966423 303.665649,75.596794 304.902924,66.642921 
M273.000000,68.508316 
	C273.000000,76.576012 273.000000,84.643707 273.000000,92.682114 
	C276.980255,92.682114 280.363525,92.682114 283.706085,92.682114 
	C283.706085,80.006882 283.706085,67.651833 283.706085,55.317665 
	C280.020233,55.317665 276.637054,55.317665 273.335907,55.317665 
	C273.184235,55.943306 273.045654,56.253105 273.043427,56.563889 
	C273.017059,60.213081 273.011230,63.862419 273.000000,68.508316 
M276.982178,48.961220 
	C278.547638,48.659008 280.635254,48.873539 281.560913,47.938175 
	C283.098755,46.384159 285.132294,43.747669 284.701355,42.191902 
	C284.075775,39.933372 281.756775,37.504154 279.553925,36.556519 
	C278.180878,35.965855 275.039673,37.437572 273.828094,38.915253 
	C270.589264,42.865406 272.998596,46.029598 276.982178,48.961220 
z"/>
<path fill="#0A66C2" opacity="1.000000" stroke="none" 
	d="
M248.992615,91.755722 
	C247.380737,92.821861 245.815674,93.656334 244.157516,93.933205 
	C242.383682,94.229393 240.522095,93.999992 238.298141,93.999992 
	C238.142181,92.816948 238.000854,91.744911 237.775040,90.031944 
	C229.575211,96.385544 221.175797,95.598030 213.125397,90.488167 
	C207.431122,86.873817 205.096893,73.972153 208.007645,65.399849 
	C211.856415,54.065018 220.813095,51.026630 237.000000,55.804661 
	C237.000000,52.404942 237.000000,49.112297 237.000000,45.819653 
	C237.000000,42.697479 237.000000,39.575302 237.000000,36.234062 
	C241.026566,36.234062 244.635086,36.234062 248.998444,36.234062 
	C248.998444,54.509460 248.998444,72.894058 248.992615,91.755722 
M220.000046,73.584793 
	C220.152313,79.870087 222.704041,82.853294 228.053146,82.999619 
	C233.727097,83.154823 236.814468,80.204048 237.397614,74.068626 
	C237.761703,70.237785 234.540054,65.521126 231.209351,65.008698 
	C224.656815,64.000587 221.198761,66.388474 220.000046,73.584793 
z"/>
<path fill="#0A66C2" opacity="1.000000" stroke="none" 
	d="
M156.338165,54.000008 
	C160.075653,54.000000 163.363861,54.000000 168.192642,54.000000 
	C162.466125,60.725895 157.550735,66.499123 152.360016,72.595734 
	C157.167984,79.201050 162.163696,86.064308 167.923859,93.977760 
	C162.027237,93.977760 157.172058,94.109512 152.336548,93.860130 
	C151.432404,93.813507 150.467102,92.339096 149.769135,91.354134 
	C146.449585,86.669670 143.212677,81.926628 139.079529,77.600967 
	C139.079529,82.844444 139.079529,88.087921 139.079529,93.662079 
	C134.727951,93.662079 130.671875,93.662079 126.304626,93.662079 
	C126.304626,74.677597 126.304626,55.638397 126.304626,36.298813 
	C130.352036,36.298813 134.407227,36.298813 138.951111,36.298813 
	C138.951111,46.706993 138.951111,57.063473 138.951111,68.809151 
	C143.323135,63.942757 146.624557,59.918171 150.338623,56.319466 
	C151.679245,55.020496 154.009995,54.743416 156.338165,54.000008 
z"/>
<path fill="#0A66C2" opacity="1.000000" stroke="none" 
	d="
M194.709595,54.915237 
	C203.076691,61.668877 204.804886,66.197289 203.623718,77.769562 
	C195.074692,77.769562 186.482361,77.769562 177.824509,77.769562 
	C179.538773,85.712601 186.374725,86.610146 193.876160,79.828026 
	C195.712906,81.187370 197.507263,82.846283 199.587296,83.981972 
	C203.280640,85.998520 202.148026,87.840553 199.691696,89.791069 
	C188.205566,98.911980 168.711884,95.062500 164.738052,80.175186 
	C162.755173,72.746643 163.302933,65.267731 169.078049,59.606831 
	C174.834488,53.964222 182.041016,51.684319 190.186325,53.649849 
	C191.580154,53.986198 192.949234,54.425114 194.709595,54.915237 
M177.423325,68.806183 
	C181.903687,68.806183 186.384048,68.806183 190.864395,68.806183 
	C191.113831,68.309875 191.363251,67.813568 191.612686,67.317261 
	C189.784576,65.879791 188.158234,63.761333 186.086121,63.147404 
	C181.844193,61.890594 179.045929,64.460747 177.423325,68.806183 
z"/>
<path fill="#0A66C2" opacity="1.000000" stroke="none" 
	d="
M120.999908,89.839180 
	C121.383469,92.972176 120.587830,94.337593 117.563210,94.051094 
	C114.940865,93.802689 112.276352,93.999435 109.000000,93.999435 
	C109.000000,88.488541 109.131096,83.218987 108.950188,77.960159 
	C108.843887,74.870323 108.687874,71.641312 107.685883,68.778862 
	C107.132454,67.197891 104.702522,65.155792 103.268280,65.266243 
	C101.177856,65.427223 98.621689,66.907646 97.381317,68.630096 
	C96.183968,70.292786 96.114632,72.967926 96.055466,75.211632 
	C95.894188,81.327782 96.000015,87.450974 96.000015,93.780792 
	C91.603584,93.780792 87.658928,93.780792 83.356155,93.780792 
	C83.356155,80.765289 83.356155,67.703560 83.356155,54.000141 
	C87.674217,54.629848 92.376511,52.613583 96.371666,55.279564 
	C101.069313,54.851425 106.137238,53.536221 110.958359,54.152290 
	C118.001198,55.052261 120.883972,59.205948 120.977272,66.360817 
	C121.077225,74.025154 120.999931,81.691788 120.999908,89.839180 
z"/>
<path fill="#0A66C2" opacity="1.000000" stroke="none" 
	d="
M42.157135,80.999908 
	C48.263866,81.000000 53.888165,81.000000 59.751583,81.000000 
	C59.751583,85.333282 59.751583,89.277435 59.751583,93.611694 
	C48.169304,93.611694 36.445427,93.611694 24.359240,93.611694 
	C24.359240,74.773239 24.359240,55.722782 24.359240,36.335190 
	C28.614820,36.335190 33.006313,36.335190 38.000000,36.335190 
	C38.000000,44.884499 37.999928,53.481300 38.000023,62.078106 
	C38.000080,67.240639 38.174984,72.411331 37.934078,77.562584 
	C37.793152,80.575897 39.017853,81.387344 42.157135,80.999908 
z"/>
<path fill="#0A66C2" opacity="1.000000" stroke="none" 
	d="
M632.000000,88.922569 
	C632.000000,100.354797 629.133179,105.841858 620.816406,107.400429 
	C615.486633,108.399223 609.746033,107.418159 604.209534,107.035934 
	C599.500122,106.710823 598.082031,103.852226 599.302307,99.374191 
	C606.602173,101.714050 613.948792,105.817024 621.555481,100.793121 
	C624.592529,98.787323 626.927612,95.797958 625.857971,91.913391 
	C621.377441,92.617157 616.996399,93.525375 612.568970,93.950790 
	C605.360474,94.643417 600.063416,90.872879 597.190552,84.893486 
	C593.241333,76.674019 593.844482,68.147018 600.393311,61.312569 
	C605.171692,56.325809 611.280029,54.948868 618.399658,56.795677 
	C622.464661,57.850136 627.027283,56.986462 632.000000,56.986462 
	C632.000000,67.568542 632.000000,78.002052 632.000000,88.922569 
M625.122437,69.573891 
	C622.829651,60.714748 610.458862,58.233940 604.076843,66.371292 
	C599.605042,72.073036 599.862061,80.254845 605.070801,85.574883 
	C609.543884,90.143578 616.812439,90.492638 621.859131,85.964844 
	C626.625549,81.688530 627.630859,76.210182 625.122437,69.573891 
z"/>
<path fill="#0A66C2" opacity="1.000000" stroke="none" 
	d="
M466.493958,57.235832 
	C468.726013,57.055866 470.548523,57.055866 472.684875,57.055866 
	C472.684875,69.220779 472.684875,81.280861 472.684875,93.767899 
	C471.043915,93.849396 469.315582,93.935234 467.281464,94.036255 
	C467.114838,92.380280 466.972778,90.968361 466.798920,89.240349 
	C466.167328,89.669479 465.614746,89.957939 465.166931,90.362389 
	C459.632202,95.361221 453.284576,95.674225 446.717560,93.173653 
	C439.997314,90.614700 436.040131,84.583031 436.000031,77.660767 
	C435.918060,63.512573 443.737366,54.904762 455.745239,56.026367 
	C459.204712,56.349506 462.638733,56.945114 466.493958,57.235832 
M466.995148,72.896561 
	C465.413330,63.323235 456.717926,59.459309 450.074402,62.150604 
	C442.648804,65.158699 439.837524,71.843117 443.131653,81.386208 
	C444.652466,85.791992 448.121246,88.936798 453.443024,89.018448 
	C462.286621,89.154137 466.997406,83.906647 466.995148,72.896561 
z"/>
<path fill="#0A66C2" opacity="1.000000" stroke="none" 
	d="
M399.684814,87.271271 
	C394.285278,79.512451 394.538330,69.050117 400.615051,62.026424 
	C404.865326,57.113792 413.580994,53.978020 421.725769,57.300259 
	C428.996246,60.265896 433.405457,68.103523 432.617279,76.935532 
	C422.551331,76.935532 412.442657,76.935532 402.312775,76.935532 
	C402.767303,82.888512 406.168427,87.255547 411.212494,88.694534 
	C417.017670,90.350655 422.645050,87.965691 426.860352,81.957085 
	C428.419952,82.731842 430.006256,83.519875 431.693726,84.358154 
	C428.530701,91.750381 422.057343,94.713921 414.948914,94.671745 
	C409.418091,94.638916 403.146545,93.660828 399.684814,87.271271 
M411.616241,61.994762 
	C406.499146,63.750343 403.248566,67.147736 402.004181,72.788483 
	C410.342926,72.788483 418.382263,72.788483 426.412964,72.788483 
	C424.717773,64.845306 418.628113,60.105495 411.616241,61.994762 
z"/>
<path fill="#0A66C2" opacity="1.000000" stroke="none" 
	d="
M503.000000,65.066681 
	C503.000000,62.264156 503.000000,59.950172 503.000000,56.700016 
	C505.488190,57.239548 507.499695,57.675720 509.511200,58.111897 
	C509.427185,58.664444 509.343170,59.216991 509.259125,59.769539 
	C514.699890,57.019405 520.132019,54.445133 526.347961,57.125175 
	C530.643860,58.977394 533.555603,62.406387 533.821289,66.706268 
	C534.372314,75.623001 533.987610,84.597549 533.987610,93.768188 
	C531.860535,93.768188 530.136597,93.768188 527.999939,93.768188 
	C527.999939,85.926384 527.925842,78.305054 528.029846,70.686157 
	C528.085449,66.609818 526.449463,63.465786 522.736511,62.122677 
	C518.585632,60.621117 510.451385,63.693771 509.174072,66.867249 
	C508.766357,67.880203 509.006744,69.166885 509.005188,70.328400 
	C508.995117,77.972618 509.000000,85.616859 509.000000,93.754143 
	C507.112122,93.851814 505.382294,93.941307 503.000000,94.064552 
	C503.000000,84.409340 503.000000,74.982285 503.000000,65.066681 
z"/>
<path fill="#0A66C2" opacity="1.000000" stroke="none" 
	d="
M65.000000,74.000000 
	C65.000000,67.214966 65.000000,60.929699 65.000000,54.323189 
	C69.294960,54.323189 73.342735,54.323189 77.698311,54.323189 
	C77.698311,67.308014 77.698311,80.329132 77.698311,93.676109 
	C73.706436,93.676109 69.658653,93.676109 65.000000,93.676109 
	C65.000000,87.316658 65.000000,80.908211 65.000000,74.000000 
z"/>
<path fill="#0A66C2" opacity="1.000000" stroke="none" 
	d="
M564.000000,77.058090 
	C564.000000,82.851166 564.000000,88.155190 564.000000,93.722862 
	C562.274658,93.722862 560.883301,93.722862 559.244263,93.722862 
	C559.244263,81.567436 559.244263,69.482735 559.244263,57.201115 
	C560.825745,57.201115 562.257751,57.201115 563.745911,57.201115 
	C563.923645,58.387619 564.082764,59.449715 564.250366,60.568607 
	C569.562439,57.837959 574.302490,54.692051 580.865112,56.755798 
	C586.676575,58.583305 589.442200,62.537548 589.816101,67.690498 
	C590.438843,76.270782 589.985901,84.929146 589.985901,93.772827 
	C587.974976,93.772827 586.365784,93.772827 584.000000,93.772827 
	C584.000000,86.978172 583.994812,80.064491 584.001953,73.150833 
	C584.006470,68.786171 583.955505,64.451439 578.954346,62.459667 
	C574.928955,60.856483 567.567261,62.450390 565.287598,66.563858 
	C563.772766,69.297279 564.355957,73.193375 564.000000,77.058090 
z"/>
<path fill="#0A66C2" opacity="1.000000" stroke="none" 
	d="
M389.853088,88.000000 
	C391.790527,88.074577 393.244995,88.149155 394.839142,88.230888 
	C394.839142,90.144623 394.839142,91.765488 394.839142,93.693550 
	C384.723694,93.693550 374.652588,93.693550 364.289307,93.693550 
	C364.289307,74.621758 364.289307,55.563789 364.289307,36.253769 
	C366.100616,36.253769 367.825745,36.253769 369.850525,36.253769 
	C369.850525,53.357731 369.850525,70.303452 369.850525,88.000000 
	C376.539612,88.000000 382.954895,88.000000 389.853088,88.000000 
z"/>
<path fill="#0A66C2" opacity="1.000000" stroke="none" 
	d="
M481.000641,90.756516 
	C481.000061,79.352386 481.000061,68.423759 481.000061,57.951401 
	C486.627136,57.951401 491.965240,57.951401 497.752655,57.951401 
	C497.803772,58.521572 497.928864,59.917339 498.041229,61.170868 
	C497.559662,61.535774 497.299011,61.901253 497.069885,61.882446 
	C490.670288,61.357117 486.351288,66.905182 486.054626,74.220238 
	C485.794006,80.646675 486.000214,87.092049 486.000214,93.915359 
	C483.623169,93.663467 480.787231,95.516975 481.000641,90.756516 
z"/>
<path fill="#0A66C2" opacity="1.000000" stroke="none" 
	d="
M545.932007,57.000118 
	C548.587769,56.805241 550.113098,56.944664 550.066345,59.982601 
	C549.895691,71.074875 549.998840,82.171364 549.998840,93.752846 
	C548.112244,93.851799 546.386719,93.942307 544.225220,94.055687 
	C544.225220,83.477234 544.225220,73.104477 544.225220,62.421089 
	C542.468384,62.178616 541.080078,61.986992 539.309570,61.742630 
	C539.192017,60.444668 539.064575,59.036968 538.880066,57.000019 
	C541.260986,57.000019 543.360779,57.000019 545.932007,57.000118 
z"/>
<path fill="#0A66C2" opacity="1.000000" stroke="none" 
	d="
M69.510735,35.202484 
	C77.789757,35.974297 81.250160,41.036999 77.783791,46.558365 
	C75.874390,49.599739 72.964279,50.944790 69.792114,49.834797 
	C67.636398,49.080475 65.129311,47.186913 64.339920,45.186871 
	C63.228710,42.371449 63.390743,38.930546 66.656982,36.859180 
	C67.474716,36.340591 68.313911,35.855839 69.510735,35.202484 
z"/>
<path fill="#0A66C2" opacity="1.000000" stroke="none" 
	d="
M551.709106,45.681480 
	C549.562561,47.092583 547.556519,49.113552 545.715210,48.973267 
	C544.374390,48.871117 542.177185,45.808258 542.332520,44.263607 
	C542.488037,42.717384 545.815247,39.949429 546.487122,40.280949 
	C548.616089,41.331432 550.153870,43.579964 551.709106,45.681480 
z"/>
<path fill="#FFFFFF" opacity="1.000000" stroke="none" 
	d="
M304.599548,66.935043 
	C303.665649,75.596794 303.035126,83.966423 302.378601,92.681427 
	C299.685486,92.681427 296.625122,92.681427 293.278503,92.681427 
	C293.278503,80.279190 293.278503,67.884209 293.278503,55.243820 
	C296.332428,55.243820 299.271942,55.243820 302.635651,55.243820 
	C302.834534,56.620472 303.056519,58.157021 303.409943,60.603226 
	C304.963745,59.248592 306.087891,58.214836 307.268005,57.249508 
	C311.274048,53.972725 315.927368,53.716480 320.475739,55.303951 
	C324.732452,56.789623 327.588989,60.156776 327.933563,64.785393 
	C328.617950,73.979187 328.956177,83.198753 329.453674,92.718231 
	C325.277191,92.718231 321.885254,92.718231 317.999023,92.718231 
	C317.999023,85.654999 318.324005,78.683304 317.832092,71.769737 
	C317.646759,69.164871 316.179688,65.400986 314.209198,64.471603 
	C311.379150,63.136799 307.297791,62.935860 304.599548,66.935043 
z"/>
<path fill="#FFFFFF" opacity="1.000000" stroke="none" 
	d="
M273.000000,68.010017 
	C273.011230,63.862419 273.017059,60.213081 273.043427,56.563889 
	C273.045654,56.253105 273.184235,55.943306 273.335907,55.317665 
	C276.637054,55.317665 280.020233,55.317665 283.706085,55.317665 
	C283.706085,67.651833 283.706085,80.006882 283.706085,92.682114 
	C280.363525,92.682114 276.980255,92.682114 273.000000,92.682114 
	C273.000000,84.643707 273.000000,76.576012 273.000000,68.010017 
z"/>
<path fill="#FFFFFF" opacity="1.000000" stroke="none" 
	d="
M276.610016,48.840248 
	C272.998596,46.029598 270.589264,42.865406 273.828094,38.915253 
	C275.039673,37.437572 278.180878,35.965855 279.553925,36.556519 
	C281.756775,37.504154 284.075775,39.933372 284.701355,42.191902 
	C285.132294,43.747669 283.098755,46.384159 281.560913,47.938175 
	C280.635254,48.873539 278.547638,48.659008 276.610016,48.840248 
z"/>
<path fill="#FFFFFF" opacity="1.000000" stroke="none" 
	d="
M220.000275,73.166763 
	C221.198761,66.388474 224.656815,64.000587 231.209351,65.008698 
	C234.540054,65.521126 237.761703,70.237785 237.397614,74.068626 
	C236.814468,80.204048 233.727097,83.154823 228.053146,82.999619 
	C222.704041,82.853294 220.152313,79.870087 220.000275,73.166763 
z"/>
<path fill="#FFFFFF" opacity="1.000000" stroke="none" 
	d="
M177.258972,68.423470 
	C179.045929,64.460747 181.844193,61.890594 186.086121,63.147404 
	C188.158234,63.761333 189.784576,65.879791 191.612686,67.317261 
	C191.363251,67.813568 191.113831,68.309875 190.864395,68.806183 
	C186.384048,68.806183 181.903687,68.806183 177.258972,68.423470 
z"/>
<path fill="#FFFFFF" opacity="1.000000" stroke="none" 
	d="
M625.389954,69.868301 
	C627.630859,76.210182 626.625549,81.688530 621.859131,85.964844 
	C616.812439,90.492638 609.543884,90.143578 605.070801,85.574883 
	C599.862061,80.254845 599.605042,72.073036 604.076843,66.371292 
	C610.458862,58.233940 622.829651,60.714748 625.389954,69.868301 
z"/>
<path fill="#FFFFFF" opacity="1.000000" stroke="none" 
	d="
M466.997314,73.327774 
	C466.997406,83.906647 462.286621,89.154137 453.443024,89.018448 
	C448.121246,88.936798 444.652466,85.791992 443.131653,81.386208 
	C439.837524,71.843117 442.648804,65.158699 450.074402,62.150604 
	C456.717926,59.459309 465.413330,63.323235 466.997314,73.327774 
z"/>
<path fill="#FFFFFF" opacity="1.000000" stroke="none" 
	d="
M412.006592,61.957199 
	C418.628113,60.105495 424.717773,64.845306 426.412964,72.788483 
	C418.382263,72.788483 410.342926,72.788483 402.004181,72.788483 
	C403.248566,67.147736 406.499146,63.750343 412.006592,61.957199 
z"/>
</svg>